<svg width="430" height="430" viewBox="0 0 430 430" fill="none" xmlns="http://www.w3.org/2000/svg">
<path fill-rule="evenodd" clip-rule="evenodd" d="M430 0H0V430H430V0ZM98.66 201.6H217.22V233.58H137.14V283.76H205.52V316H137.14V394H98.66V201.6ZM250.75 201.6H290.01L345.91 304.04L365.15 345.64H366.45C366.289 344.088 366.123 342.504 365.954 340.89C363.944 321.692 361.51 298.447 361.51 278.3V201.6H397.91V394H358.91L303.27 291.04L283.77 249.7H282.47C282.857 254.124 283.291 258.701 283.735 263.379C285.377 280.692 287.15 299.381 287.15 316.78V394H250.75V201.6Z" fill="white"/>
</svg>
