<svg width="59" height="59" viewBox="0 0 59 59" fill="none" xmlns="http://www.w3.org/2000/svg">
<g clip-path="url(#clip0_43_43)">
<path d="M29.5 -2.24629e-06C22.106 -0.0102346 14.978 2.75748 9.52834 7.7547C4.07869 12.7519 0.705112 19.614 0.0760846 26.9812C-0.552943 34.3483 1.60849 41.683 6.13207 47.5318C10.6557 53.3805 17.2113 57.3166 24.5 58.56V49.42H23.96C21.7937 49.5137 19.6654 48.8291 17.96 47.49C16.9958 46.5601 16.2835 45.4005 15.89 44.12C15.59 43.31 15.45 42.99 15.15 42.77C14.5857 42.4513 13.9283 42.3382 13.29 42.45C12.9617 42.4809 12.6305 42.4467 12.3154 42.3496C12.0003 42.2525 11.7074 42.0943 11.4534 41.8839C10.9405 41.4592 10.6173 40.848 10.555 40.185C10.4927 39.522 10.6963 38.8613 11.121 38.3484C11.5458 37.8355 12.1569 37.5123 12.82 37.45C14.6928 37.1883 16.595 37.6495 18.14 38.74C19.3044 39.6625 20.1535 40.924 20.57 42.35C20.7112 42.8733 20.9674 43.3584 21.32 43.77C22.317 44.3371 23.477 44.5487 24.61 44.37C24.6668 43.6096 24.8458 42.8634 25.14 42.16C25.7659 40.6815 26.8082 39.4168 28.14 38.52C20.56 37.68 17 34 17 29C17.0828 26.7602 17.9786 24.6272 19.52 23C19.02 21.26 18.35 17.68 19.74 16.29C20.8571 16.3108 21.9574 16.5653 22.9702 17.0373C23.9829 17.5092 24.8856 18.188 25.62 19.03C27.3466 18.4008 29.1631 18.053 31 18C32.8437 18.0018 34.6746 18.3058 36.42 18.9C37.1544 18.058 38.0571 17.3792 39.0698 16.9073C40.0825 16.4353 41.1829 16.1808 42.3 16.16C43.64 17.5 43.02 21.16 42.46 22.87C44.0565 24.5153 44.965 26.7077 45 29C45 34 41.47 37.73 34 38.51C36.06 39.57 37.52 42.59 37.52 44.83V57.89C44.3752 55.9544 50.2986 51.6037 54.1962 45.6413C58.0937 39.6789 59.7023 32.5077 58.7248 25.4518C57.7473 18.3959 54.2497 11.932 48.878 7.2538C43.5063 2.57559 36.6233 -0.000943572 29.5 -2.24629e-06V-2.24629e-06Z" fill="white"/>
</g>
<defs>
<clipPath id="clip0_43_43">
<rect width="59" height="58.56" fill="white"/>
</clipPath>
</defs>
</svg>
