{"asset":{"generator":"Khronos glTF Spline I/O v0.0.1","version":"2.0"},"scenes":[{"nodes":[0]}],"nodes":[{"name":"Glass Circles - Copy","children":[1,2]},{"name":"dice","matrix":[1,0,0,0,0,1,0,0,0,0,1,0,0,0,0,1],"children":[3,4,5,6,7,8,9]},{"name":"Default Camera","camera":0,"translation":[-1135.0734317508238,-39.82780834643943,-91.33242913105562],"rotation":[-2.1522235314970032e-17,-0.7071067811865475,-2.152223531497003e-17,0.7071067811865476],"children":[10]},{"name":"side 2","matrix":[1,0,0,0,0,1,0,0,0,0,1,0,-51,0,0,1],"children":[11,12]},{"name":"side 5","matrix":[1,0,0,0,0,1,0,0,0,0,1,0,51,0,0,1],"children":[13,14,15,16,17]},{"name":"side 4","matrix":[1,0,0,0,0,1,0,0,0,0,1,0,0,0,-51,1],"children":[18,19,20,21]},{"name":"side 3","matrix":[1,0,0,0,0,1,0,0,0,0,1,0,0,0,51,1],"children":[22,23,24]},{"name":"side 6","matrix":[1,0,0,0,0,1,0,0,0,0,1,0,0,-51,0,1],"children":[25,26,27,28,29,30]},{"name":"side 1","matrix":[1,0,0,0,0,1,0,0,0,0,1,0,0,51,0,1],"children":[31]},{"name":"Cube","matrix":[1,0,0,0,0,1,0,0,0,0,1,0,0,0,0,1],"mesh":0},{"name":"Default Directional Light","translation":[850000,1300000,1000000],"rotation":[-0.45895513091666534,0.1367267597249462,-0.25064115022945466,0.8413352451859125],"extensions":{"KHR_lights_punctual":{"light":0}}},{"name":"Ellipse 2","matrix":[2.220446049250313e-16,0,1,0,0,1,0,0,-1,0,2.220446049250313e-16,0,0,30,-30,1],"mesh":1},{"name":"Ellipse","matrix":[2.220446049250313e-16,0,1,0,0,1,0,0,-1,0,2.220446049250313e-16,0,0,-30,30,1],"mesh":2},{"name":"Ellipse 5","matrix":[2.220446049250313e-16,0,-1,0,0,1,0,0,1,0,2.220446049250313e-16,0,0,30,-30,1],"mesh":3},{"name":"Ellipse 4","matrix":[2.220446049250313e-16,0,-1,0,0,1,0,0,1,0,2.220446049250313e-16,0,0,-30,30,1],"mesh":4},{"name":"Ellipse 3","matrix":[2.220446049250313e-16,0,-1,0,0,1,0,0,1,0,2.220446049250313e-16,0,0,-30,-30,1],"mesh":5},{"name":"Ellipse 2","matrix":[2.220446049250313e-16,0,-1,0,0,1,0,0,1,0,2.220446049250313e-16,0,0,30,30,1],"mesh":6},{"name":"Ellipse","matrix":[2.220446049250313e-16,0,-1,0,0,1,0,0,1,0,2.220446049250313e-16,0,0,0,0,1],"mesh":7},{"name":"Ellipse 4","matrix":[-1,1.2246467991473532e-16,1.4997597826618576e-32,0,1.2246467991473532e-16,1,1.2246467991473532e-16,0,0,1.2246467991473532e-16,-1,0,-30,-30,0,1],"mesh":8},{"name":"Ellipse 3","matrix":[-1,1.2246467991473532e-16,1.4997597826618576e-32,0,1.2246467991473532e-16,1,1.2246467991473532e-16,0,0,1.2246467991473532e-16,-1,0,-30,30,0,1],"mesh":9},{"name":"Ellipse 2","matrix":[-1,1.2246467991473532e-16,1.4997597826618576e-32,0,1.2246467991473532e-16,1,1.2246467991473532e-16,0,0,1.2246467991473532e-16,-1,0,30,-30,0,1],"mesh":10},{"name":"Ellipse","matrix":[-1,1.2246467991473532e-16,1.4997597826618576e-32,0,1.2246467991473532e-16,1,1.2246467991473532e-16,0,0,1.2246467991473532e-16,-1,0,30,30,0,1],"mesh":11},{"name":"Ellipse 3","matrix":[1,0,0,0,0,1,0,0,0,0,1,0,30,-30,0,1],"mesh":12},{"name":"Ellipse 2","matrix":[1,0,0,0,0,1,0,0,0,0,1,0,-30,30,0,1],"mesh":13},{"name":"Ellipse","matrix":[1,0,0,0,0,1,0,0,0,0,1,0,0,0,0,1],"mesh":14},{"name":"Ellipse 7","matrix":[1,0,0,0,0,2.220446049250313e-16,1,0,0,-1,2.220446049250313e-16,0,30,0,-30,1],"mesh":15},{"name":"Ellipse 6","matrix":[1,0,0,0,0,2.220446049250313e-16,1,0,0,-1,2.220446049250313e-16,0,30,0,0,1],"mesh":16},{"name":"Ellipse 5","matrix":[1,0,0,0,0,2.220446049250313e-16,1,0,0,-1,2.220446049250313e-16,0,30,0,30,1],"mesh":17},{"name":"Ellipse 4","matrix":[1,0,0,0,0,2.220446049250313e-16,1,0,0,-1,2.220446049250313e-16,0,-30,0,-30,1],"mesh":18},{"name":"Ellipse 3","matrix":[1,0,0,0,0,2.220446049250313e-16,1,0,0,-1,2.220446049250313e-16,0,-30,0,0,1],"mesh":19},{"name":"Ellipse 2","matrix":[1,0,0,0,0,2.220446049250313e-16,1,0,0,-1,2.220446049250313e-16,0,-30,0,30,1],"mesh":20},{"name":"Ellipse","matrix":[1,0,0,0,0,2.220446049250313e-16,-1,0,0,1,2.220446049250313e-16,0,0,0,0,1],"mesh":21}],"cameras":[{"type":"orthographic","orthographic":{"xmag":1920,"ymag":937,"zfar":50000,"znear":-50000}}],"meshes":[{"primitives":[{"attributes":{"POSITION":1,"NORMAL":2,"TEXCOORD_0":3},"indices":0}]},{"primitives":[{"attributes":{"POSITION":5,"NORMAL":6,"TEXCOORD_0":7},"indices":4}]},{"primitives":[{"attributes":{"POSITION":9,"NORMAL":10,"TEXCOORD_0":11},"indices":8}]},{"primitives":[{"attributes":{"POSITION":13,"NORMAL":14,"TEXCOORD_0":15},"indices":12}]},{"primitives":[{"attributes":{"POSITION":17,"NORMAL":18,"TEXCOORD_0":19},"indices":16}]},{"primitives":[{"attributes":{"POSITION":21,"NORMAL":22,"TEXCOORD_0":23},"indices":20}]},{"primitives":[{"attributes":{"POSITION":25,"NORMAL":26,"TEXCOORD_0":27},"indices":24}]},{"primitives":[{"attributes":{"POSITION":29,"NORMAL":30,"TEXCOORD_0":31},"indices":28}]},{"primitives":[{"attributes":{"POSITION":33,"NORMAL":34,"TEXCOORD_0":35},"indices":32}]},{"primitives":[{"attributes":{"POSITION":37,"NORMAL":38,"TEXCOORD_0":39},"indices":36}]},{"primitives":[{"attributes":{"POSITION":41,"NORMAL":42,"TEXCOORD_0":43},"indices":40}]},{"primitives":[{"attributes":{"POSITION":45,"NORMAL":46,"TEXCOORD_0":47},"indices":44}]},{"primitives":[{"attributes":{"POSITION":49,"NORMAL":50,"TEXCOORD_0":51},"indices":48}]},{"primitives":[{"attributes":{"POSITION":53,"NORMAL":54,"TEXCOORD_0":55},"indices":52}]},{"primitives":[{"attributes":{"POSITION":57,"NORMAL":58,"TEXCOORD_0":59},"indices":56}]},{"primitives":[{"attributes":{"POSITION":61,"NORMAL":62,"TEXCOORD_0":63},"indices":60}]},{"primitives":[{"attributes":{"POSITION":65,"NORMAL":66,"TEXCOORD_0":67},"indices":64}]},{"primitives":[{"attributes":{"POSITION":69,"NORMAL":70,"TEXCOORD_0":71},"indices":68}]},{"primitives":[{"attributes":{"POSITION":73,"NORMAL":74,"TEXCOORD_0":75},"indices":72}]},{"primitives":[{"attributes":{"POSITION":77,"NORMAL":78,"TEXCOORD_0":79},"indices":76}]},{"primitives":[{"attributes":{"POSITION":81,"NORMAL":82,"TEXCOORD_0":83},"indices":80}]},{"primitives":[{"attributes":{"POSITION":85,"NORMAL":86,"TEXCOORD_0":87},"indices":84}]}],"buffers":[{"uri":"data:application/octet-stream;base64,","byteLength":134344},{"uri":"data:application/octet-stream;base64,","byteLength":44000},{"uri":"data:application/octet-stream;base64,","byteLength":44000},{"uri":"data:application/octet-stream;base64,","byteLength":44000},{"uri":"data:application/octet-stream;base64,","byteLength":44000},{"uri":"data:application/octet-stream;base64,","byteLength":44000},{"uri":"data:application/octet-stream;base64,","byteLength":44000},{"uri":"data:application/octet-stream;base64,","byteLength":44000},{"uri":"data:application/octet-stream;base64,","byteLength":44000},{"uri":"data:application/octet-stream;base64,","byteLength":44000},{"uri":"data:application/octet-stream;base64,","byteLength":44000},{"uri":"data:application/octet-stream;base64,","byteLength":44000},{"uri":"data:application/octet-stream;base64,","byteLength":44000},{"uri":"data:application/octet-stream;base64,","byteLength":44000},{"uri":"data:application/octet-stream;base64,","byteLength":44000},{"uri":"data:application/octet-stream;base64,","byteLength":44000},{"uri":"data:application/octet-stream;base64,","byteLength":44000},{"uri":"data:application/octet-stream;base64,","byteLength":44000},{"uri":"data:application/octet-stream;base64,","byteLength":44000},{"uri":"data:application/octet-stream;base64,","byteLength":44000},{"uri":"data:application/octet-stream;base64,","byteLength":44000},{"uri":"data:application/octet-stream;base64,","byteLength":44000}],"bufferViews":[{"buffer":0,"byteOffset":0,"byteLength":31176,"target":34963},{"buffer":0,"byteOffset":31176,"byteLength":38688,"target":34962},{"buffer":0,"byteOffset":69864,"byteLength":38688,"target":34962},{"buffer":0,"byteOffset":108552,"byteLength":25792,"target":34962},{"buffer":1,"byteOffset":0,"byteLength":12000,"target":34963},{"buffer":1,"byteOffset":12000,"byteLength":12000,"target":34962},{"buffer":1,"byteOffset":24000,"byteLength":12000,"target":34962},{"buffer":1,"byteOffset":36000,"byteLength":8000,"target":34962},{"buffer":2,"byteOffset":0,"byteLength":12000,"target":34963},{"buffer":2,"byteOffset":12000,"byteLength":12000,"target":34962},{"buffer":2,"byteOffset":24000,"byteLength":12000,"target":34962},{"buffer":2,"byteOffset":36000,"byteLength":8000,"target":34962},{"buffer":3,"byteOffset":0,"byteLength":12000,"target":34963},{"buffer":3,"byteOffset":12000,"byteLength":12000,"target":34962},{"buffer":3,"byteOffset":24000,"byteLength":12000,"target":34962},{"buffer":3,"byteOffset":36000,"byteLength":8000,"target":34962},{"buffer":4,"byteOffset":0,"byteLength":12000,"target":34963},{"buffer":4,"byteOffset":12000,"byteLength":12000,"target":34962},{"buffer":4,"byteOffset":24000,"byteLength":12000,"target":34962},{"buffer":4,"byteOffset":36000,"byteLength":8000,"target":34962},{"buffer":5,"byteOffset":0,"byteLength":12000,"target":34963},{"buffer":5,"byteOffset":12000,"byteLength":12000,"target":34962},{"buffer":5,"byteOffset":24000,"byteLength":12000,"target":34962},{"buffer":5,"byteOffset":36000,"byteLength":8000,"target":34962},{"buffer":6,"byteOffset":0,"byteLength":12000,"target":34963},{"buffer":6,"byteOffset":12000,"byteLength":12000,"target":34962},{"buffer":6,"byteOffset":24000,"byteLength":12000,"target":34962},{"buffer":6,"byteOffset":36000,"byteLength":8000,"target":34962},{"buffer":7,"byteOffset":0,"byteLength":12000,"target":34963},{"buffer":7,"byteOffset":12000,"byteLength":12000,"target":34962},{"buffer":7,"byteOffset":24000,"byteLength":12000,"target":34962},{"buffer":7,"byteOffset":36000,"byteLength":8000,"target":34962},{"buffer":8,"byteOffset":0,"byteLength":12000,"target":34963},{"buffer":8,"byteOffset":12000,"byteLength":12000,"target":34962},{"buffer":8,"byteOffset":24000,"byteLength":12000,"target":34962},{"buffer":8,"byteOffset":36000,"byteLength":8000,"target":34962},{"buffer":9,"byteOffset":0,"byteLength":12000,"target":34963},{"buffer":9,"byteOffset":12000,"byteLength":12000,"target":34962},{"buffer":9,"byteOffset":24000,"byteLength":12000,"target":34962},{"buffer":9,"byteOffset":36000,"byteLength":8000,"target":34962},{"buffer":10,"byteOffset":0,"byteLength":12000,"target":34963},{"buffer":10,"byteOffset":12000,"byteLength":12000,"target":34962},{"buffer":10,"byteOffset":24000,"byteLength":12000,"target":34962},{"buffer":10,"byteOffset":36000,"byteLength":8000,"target":34962},{"buffer":11,"byteOffset":0,"byteLength":12000,"target":34963},{"buffer":11,"byteOffset":12000,"byteLength":12000,"target":34962},{"buffer":11,"byteOffset":24000,"byteLength":12000,"target":34962},{"buffer":11,"byteOffset":36000,"byteLength":8000,"target":34962},{"buffer":12,"byteOffset":0,"byteLength":12000,"target":34963},{"buffer":12,"byteOffset":12000,"byteLength":12000,"target":34962},{"buffer":12,"byteOffset":24000,"byteLength":12000,"target":34962},{"buffer":12,"byteOffset":36000,"byteLength":8000,"target":34962},{"buffer":13,"byteOffset":0,"byteLength":12000,"target":34963},{"buffer":13,"byteOffset":12000,"byteLength":12000,"target":34962},{"buffer":13,"byteOffset":24000,"byteLength":12000,"target":34962},{"buffer":13,"byteOffset":36000,"byteLength":8000,"target":34962},{"buffer":14,"byteOffset":0,"byteLength":12000,"target":34963},{"buffer":14,"byteOffset":12000,"byteLength":12000,"target":34962},{"buffer":14,"byteOffset":24000,"byteLength":12000,"target":34962},{"buffer":14,"byteOffset":36000,"byteLength":8000,"target":34962},{"buffer":15,"byteOffset":0,"byteLength":12000,"target":34963},{"buffer":15,"byteOffset":12000,"byteLength":12000,"target":34962},{"buffer":15,"byteOffset":24000,"byteLength":12000,"target":34962},{"buffer":15,"byteOffset":36000,"byteLength":8000,"target":34962},{"buffer":16,"byteOffset":0,"byteLength":12000,"target":34963},{"buffer":16,"byteOffset":12000,"byteLength":12000,"target":34962},{"buffer":16,"byteOffset":24000,"byteLength":12000,"target":34962},{"buffer":16,"byteOffset":36000,"byteLength":8000,"target":34962},{"buffer":17,"byteOffset":0,"byteLength":12000,"target":34963},{"buffer":17,"byteOffset":12000,"byteLength":12000,"target":34962},{"buffer":17,"byteOffset":24000,"byteLength":12000,"target":34962},{"buffer":17,"byteOffset":36000,"byteLength":8000,"target":34962},{"buffer":18,"byteOffset":0,"byteLength":12000,"target":34963},{"buffer":18,"byteOffset":12000,"byteLength":12000,"target":34962},{"buffer":18,"byteOffset":24000,"byteLength":12000,"target":34962},{"buffer":18,"byteOffset":36000,"byteLength":8000,"target":34962},{"buffer":19,"byteOffset":0,"byteLength":12000,"target":34963},{"buffer":19,"byteOffset":12000,"byteLength":12000,"target":34962},{"buffer":19,"byteOffset":24000,"byteLength":12000,"target":34962},{"buffer":19,"byteOffset":36000,"byteLength":8000,"target":34962},{"buffer":20,"byteOffset":0,"byteLength":12000,"target":34963},{"buffer":20,"byteOffset":12000,"byteLength":12000,"target":34962},{"buffer":20,"byteOffset":24000,"byteLength":12000,"target":34962},{"buffer":20,"byteOffset":36000,"byteLength":8000,"target":34962},{"buffer":21,"byteOffset":0,"byteLength":12000,"target":34963},{"buffer":21,"byteOffset":12000,"byteLength":12000,"target":34962},{"buffer":21,"byteOffset":24000,"byteLength":12000,"target":34962},{"buffer":21,"byteOffset":36000,"byteLength":8000,"target":34962}],"accessors":[{"bufferView":0,"byteOffset":0,"componentType":5123,"count":15588,"type":"SCALAR","min":[0],"max":[3223]},{"bufferView":1,"byteOffset":0,"componentType":5126,"count":3224,"type":"VEC3","min":[-50,-50,-50],"max":[50,50,50]},{"bufferView":2,"byteOffset":0,"componentType":5126,"count":3224,"type":"VEC3","min":[-1,-1,-1],"max":[1,1,1]},{"bufferView":3,"byteOffset":0,"componentType":5126,"count":3224,"type":"VEC2","min":[0,0],"max":[1,1]},{"bufferView":4,"byteOffset":0,"componentType":5125,"count":3000,"type":"SCALAR","min":[0],"max":[127]},{"bufferView":5,"byteOffset":0,"componentType":5126,"count":1000,"type":"VEC3","min":[-10,-10,0],"max":[10,10,0]},{"bufferView":6,"byteOffset":0,"componentType":5126,"count":1000,"type":"VEC3","min":[0,0,0],"max":[0,0,1]},{"bufferView":7,"byteOffset":0,"componentType":5126,"count":1000,"type":"VEC2","min":[0,0],"max":[1,1]},{"bufferView":8,"byteOffset":0,"componentType":5125,"count":3000,"type":"SCALAR","min":[0],"max":[127]},{"bufferView":9,"byteOffset":0,"componentType":5126,"count":1000,"type":"VEC3","min":[-10,-10,0],"max":[10,10,0]},{"bufferView":10,"byteOffset":0,"componentType":5126,"count":1000,"type":"VEC3","min":[0,0,0],"max":[0,0,1]},{"bufferView":11,"byteOffset":0,"componentType":5126,"count":1000,"type":"VEC2","min":[0,0],"max":[1,1]},{"bufferView":12,"byteOffset":0,"componentType":5125,"count":3000,"type":"SCALAR","min":[0],"max":[127]},{"bufferView":13,"byteOffset":0,"componentType":5126,"count":1000,"type":"VEC3","min":[-10,-10,0],"max":[10,10,0]},{"bufferView":14,"byteOffset":0,"componentType":5126,"count":1000,"type":"VEC3","min":[0,0,0],"max":[0,0,1]},{"bufferView":15,"byteOffset":0,"componentType":5126,"count":1000,"type":"VEC2","min":[0,0],"max":[1,1]},{"bufferView":16,"byteOffset":0,"componentType":5125,"count":3000,"type":"SCALAR","min":[0],"max":[127]},{"bufferView":17,"byteOffset":0,"componentType":5126,"count":1000,"type":"VEC3","min":[-10,-10,0],"max":[10,10,0]},{"bufferView":18,"byteOffset":0,"componentType":5126,"count":1000,"type":"VEC3","min":[0,0,0],"max":[0,0,1]},{"bufferView":19,"byteOffset":0,"componentType":5126,"count":1000,"type":"VEC2","min":[0,0],"max":[1,1]},{"bufferView":20,"byteOffset":0,"componentType":5125,"count":3000,"type":"SCALAR","min":[0],"max":[127]},{"bufferView":21,"byteOffset":0,"componentType":5126,"count":1000,"type":"VEC3","min":[-10,-10,0],"max":[10,10,0]},{"bufferView":22,"byteOffset":0,"componentType":5126,"count":1000,"type":"VEC3","min":[0,0,0],"max":[0,0,1]},{"bufferView":23,"byteOffset":0,"componentType":5126,"count":1000,"type":"VEC2","min":[0,0],"max":[1,1]},{"bufferView":24,"byteOffset":0,"componentType":5125,"count":3000,"type":"SCALAR","min":[0],"max":[127]},{"bufferView":25,"byteOffset":0,"componentType":5126,"count":1000,"type":"VEC3","min":[-10,-10,0],"max":[10,10,0]},{"bufferView":26,"byteOffset":0,"componentType":5126,"count":1000,"type":"VEC3","min":[0,0,0],"max":[0,0,1]},{"bufferView":27,"byteOffset":0,"componentType":5126,"count":1000,"type":"VEC2","min":[0,0],"max":[1,1]},{"bufferView":28,"byteOffset":0,"componentType":5125,"count":3000,"type":"SCALAR","min":[0],"max":[127]},{"bufferView":29,"byteOffset":0,"componentType":5126,"count":1000,"type":"VEC3","min":[-10,-10,0],"max":[10,10,0]},{"bufferView":30,"byteOffset":0,"componentType":5126,"count":1000,"type":"VEC3","min":[0,0,0],"max":[0,0,1]},{"bufferView":31,"byteOffset":0,"componentType":5126,"count":1000,"type":"VEC2","min":[0,0],"max":[1,1]},{"bufferView":32,"byteOffset":0,"componentType":5125,"count":3000,"type":"SCALAR","min":[0],"max":[127]},{"bufferView":33,"byteOffset":0,"componentType":5126,"count":1000,"type":"VEC3","min":[-10,-10,0],"max":[10,10,0]},{"bufferView":34,"byteOffset":0,"componentType":5126,"count":1000,"type":"VEC3","min":[0,0,0],"max":[0,0,1]},{"bufferView":35,"byteOffset":0,"componentType":5126,"count":1000,"type":"VEC2","min":[0,0],"max":[1,1]},{"bufferView":36,"byteOffset":0,"componentType":5125,"count":3000,"type":"SCALAR","min":[0],"max":[127]},{"bufferView":37,"byteOffset":0,"componentType":5126,"count":1000,"type":"VEC3","min":[-10,-10,0],"max":[10,10,0]},{"bufferView":38,"byteOffset":0,"componentType":5126,"count":1000,"type":"VEC3","min":[0,0,0],"max":[0,0,1]},{"bufferView":39,"byteOffset":0,"componentType":5126,"count":1000,"type":"VEC2","min":[0,0],"max":[1,1]},{"bufferView":40,"byteOffset":0,"componentType":5125,"count":3000,"type":"SCALAR","min":[0],"max":[127]},{"bufferView":41,"byteOffset":0,"componentType":5126,"count":1000,"type":"VEC3","min":[-10,-10,0],"max":[10,10,0]},{"bufferView":42,"byteOffset":0,"componentType":5126,"count":1000,"type":"VEC3","min":[0,0,0],"max":[0,0,1]},{"bufferView":43,"byteOffset":0,"componentType":5126,"count":1000,"type":"VEC2","min":[0,0],"max":[1,1]},{"bufferView":44,"byteOffset":0,"componentType":5125,"count":3000,"type":"SCALAR","min":[0],"max":[127]},{"bufferView":45,"byteOffset":0,"componentType":5126,"count":1000,"type":"VEC3","min":[-10,-10,0],"max":[10,10,0]},{"bufferView":46,"byteOffset":0,"componentType":5126,"count":1000,"type":"VEC3","min":[0,0,0],"max":[0,0,1]},{"bufferView":47,"byteOffset":0,"componentType":5126,"count":1000,"type":"VEC2","min":[0,0],"max":[1,1]},{"bufferView":48,"byteOffset":0,"componentType":5125,"count":3000,"type":"SCALAR","min":[0],"max":[127]},{"bufferView":49,"byteOffset":0,"componentType":5126,"count":1000,"type":"VEC3","min":[-10,-10,0],"max":[10,10,0]},{"bufferView":50,"byteOffset":0,"componentType":5126,"count":1000,"type":"VEC3","min":[0,0,0],"max":[0,0,1]},{"bufferView":51,"byteOffset":0,"componentType":5126,"count":1000,"type":"VEC2","min":[0,0],"max":[1,1]},{"bufferView":52,"byteOffset":0,"componentType":5125,"count":3000,"type":"SCALAR","min":[0],"max":[127]},{"bufferView":53,"byteOffset":0,"componentType":5126,"count":1000,"type":"VEC3","min":[-10,-10,0],"max":[10,10,0]},{"bufferView":54,"byteOffset":0,"componentType":5126,"count":1000,"type":"VEC3","min":[0,0,0],"max":[0,0,1]},{"bufferView":55,"byteOffset":0,"componentType":5126,"count":1000,"type":"VEC2","min":[0,0],"max":[1,1]},{"bufferView":56,"byteOffset":0,"componentType":5125,"count":3000,"type":"SCALAR","min":[0],"max":[127]},{"bufferView":57,"byteOffset":0,"componentType":5126,"count":1000,"type":"VEC3","min":[-10,-10,0],"max":[10,10,0]},{"bufferView":58,"byteOffset":0,"componentType":5126,"count":1000,"type":"VEC3","min":[0,0,0],"max":[0,0,1]},{"bufferView":59,"byteOffset":0,"componentType":5126,"count":1000,"type":"VEC2","min":[0,0],"max":[1,1]},{"bufferView":60,"byteOffset":0,"componentType":5125,"count":3000,"type":"SCALAR","min":[0],"max":[127]},{"bufferView":61,"byteOffset":0,"componentType":5126,"count":1000,"type":"VEC3","min":[-10,-10,0],"max":[10,10,0]},{"bufferView":62,"byteOffset":0,"componentType":5126,"count":1000,"type":"VEC3","min":[0,0,0],"max":[0,0,1]},{"bufferView":63,"byteOffset":0,"componentType":5126,"count":1000,"type":"VEC2","min":[0,0],"max":[1,1]},{"bufferView":64,"byteOffset":0,"componentType":5125,"count":3000,"type":"SCALAR","min":[0],"max":[127]},{"bufferView":65,"byteOffset":0,"componentType":5126,"count":1000,"type":"VEC3","min":[-10,-10,0],"max":[10,10,0]},{"bufferView":66,"byteOffset":0,"componentType":5126,"count":1000,"type":"VEC3","min":[0,0,0],"max":[0,0,1]},{"bufferView":67,"byteOffset":0,"componentType":5126,"count":1000,"type":"VEC2","min":[0,0],"max":[1,1]},{"bufferView":68,"byteOffset":0,"componentType":5125,"count":3000,"type":"SCALAR","min":[0],"max":[127]},{"bufferView":69,"byteOffset":0,"componentType":5126,"count":1000,"type":"VEC3","min":[-10,-10,0],"max":[10,10,0]},{"bufferView":70,"byteOffset":0,"componentType":5126,"count":1000,"type":"VEC3","min":[0,0,0],"max":[0,0,1]},{"bufferView":71,"byteOffset":0,"componentType":5126,"count":1000,"type":"VEC2","min":[0,0],"max":[1,1]},{"bufferView":72,"byteOffset":0,"componentType":5125,"count":3000,"type":"SCALAR","min":[0],"max":[127]},{"bufferView":73,"byteOffset":0,"componentType":5126,"count":1000,"type":"VEC3","min":[-10,-10,0],"max":[10,10,0]},{"bufferView":74,"byteOffset":0,"componentType":5126,"count":1000,"type":"VEC3","min":[0,0,0],"max":[0,0,1]},{"bufferView":75,"byteOffset":0,"componentType":5126,"count":1000,"type":"VEC2","min":[0,0],"max":[1,1]},{"bufferView":76,"byteOffset":0,"componentType":5125,"count":3000,"type":"SCALAR","min":[0],"max":[127]},{"bufferView":77,"byteOffset":0,"componentType":5126,"count":1000,"type":"VEC3","min":[-10,-10,0],"max":[10,10,0]},{"bufferView":78,"byteOffset":0,"componentType":5126,"count":1000,"type":"VEC3","min":[0,0,0],"max":[0,0,1]},{"bufferView":79,"byteOffset":0,"componentType":5126,"count":1000,"type":"VEC2","min":[0,0],"max":[1,1]},{"bufferView":80,"byteOffset":0,"componentType":5125,"count":3000,"type":"SCALAR","min":[0],"max":[127]},{"bufferView":81,"byteOffset":0,"componentType":5126,"count":1000,"type":"VEC3","min":[-10,-10,0],"max":[10,10,0]},{"bufferView":82,"byteOffset":0,"componentType":5126,"count":1000,"type":"VEC3","min":[0,0,0],"max":[0,0,1]},{"bufferView":83,"byteOffset":0,"componentType":5126,"count":1000,"type":"VEC2","min":[0,0],"max":[1,1]},{"bufferView":84,"byteOffset":0,"componentType":5125,"count":3000,"type":"SCALAR","min":[0],"max":[127]},{"bufferView":85,"byteOffset":0,"componentType":5126,"count":1000,"type":"VEC3","min":[-10,-10,0],"max":[10,10,0]},{"bufferView":86,"byteOffset":0,"componentType":5126,"count":1000,"type":"VEC3","min":[0,0,0],"max":[0,0,1]},{"bufferView":87,"byteOffset":0,"componentType":5126,"count":1000,"type":"VEC2","min":[0,0],"max":[1,1]}],"extensions":{"KHR_lights_punctual":{"lights":[{"type":"directional","name":"Default Directional Light","color":[1,1,1],"intensity":0.75}]}},"extensionsUsed":["KHR_lights_punctual"]}