<svg width="100" height="100" viewBox="0 0 100 100" fill="none" xmlns="http://www.w3.org/2000/svg">
<path d="M3.85983 13.2443C2.1124 6.66656 7.00022 0 13.8062 0H50V100H13.8062C7.00022 100 2.1124 93.3334 3.85983 86.7557C6.6752 76.1579 10 61.259 10 50C10 38.741 6.6752 23.8421 3.85983 13.2443Z" fill="white"/>
<mask id="mask0_98_192" style="mask-type:alpha" maskUnits="userSpaceOnUse" x="50" y="0" width="50" height="100">
<rect x="50" width="50" height="100" fill="#C4C4C4"/>
</mask>
<g mask="url(#mask0_98_192)">
<path d="M98.0619 45.9948C99.3476 48.5367 99.3476 51.4633 98.0619 54.0052C92.0616 65.8681 72.8154 100 50 100C22.3858 100 0 77.6142 0 50C0 22.3858 22.3858 0 50 0C72.8154 0 92.0617 34.1319 98.0619 45.9948Z" fill="white"/>
</g>
</svg>
