<svg width="100" height="100" viewBox="0 0 100 100" fill="none" xmlns="http://www.w3.org/2000/svg">
<mask id="mask0_98_200" style="mask-type:alpha" maskUnits="userSpaceOnUse" x="50" y="0" width="50" height="100">
<rect x="50" width="50" height="100" fill="#C4C4C4"/>
</mask>
<g mask="url(#mask0_98_200)">
<path d="M98.0619 45.9948C99.3476 48.5367 99.3476 51.4633 98.0619 54.0052C92.0616 65.8681 72.8154 100 50 100C22.3858 100 0 77.6142 0 50C0 22.3858 22.3858 0 50 0C72.8154 0 92.0617 34.1319 98.0619 45.9948Z" fill="white"/>
</g>
<path d="M10.3182 1.24606C10.1583 0.610427 10.641 0 11.2964 0H49C49.5523 0 50 0.447715 50 1V99C50 99.5523 49.5523 100 49 100H11.2964C10.641 100 10.1583 99.3896 10.3182 98.7539C11.8056 92.8406 18 67.1819 18 50C18 32.8181 11.8056 7.15943 10.3182 1.24606Z" fill="white"/>
<path d="M0.784197 2.48879C0.403314 1.25095 1.33208 0 2.6272 0V0C3.44688 0 4.17259 0.522051 4.42067 1.30329C6.31957 7.28321 14 32.5487 14 50C14 67.4513 6.31957 92.7168 4.42067 98.6967C4.17259 99.4779 3.44688 100 2.6272 100V100C1.33208 100 0.403314 98.7491 0.784196 97.5112C3.14115 89.8513 10 66.1713 10 50C10 33.8287 3.14115 10.1487 0.784197 2.48879Z" fill="white"/>
<rect x="48" width="2" height="100" fill="white"/>
</svg>
